<svg xmlns="http://www.w3.org/2000/svg" style="position:absolute;width:0;height:0;overflow:hidden" aria-hidden="true">
  <defs>
    <symbol id="i-dsszzi" viewBox="0 0 64 64"><title>Держспецзв'язку</title>
      <path d="M32 4 L56 14 V34 C56 48 44 58 32 60 C20 58 8 48 8 34 V14 Z" fill="none" stroke="currentColor" stroke-width="3"/>
      <circle cx="32" cy="32" r="3" fill="currentColor"/>
      <path d="M22 32 A10 10 0 0 1 42 32 M17 32 A15 15 0 0 1 47 32 M27 32 A5 5 0 0 1 37 32" fill="none" stroke="currentColor" stroke-width="2.5" stroke-linecap="round"/>
    </symbol>
    <symbol id="i-sbu" viewBox="0 0 64 64"><title>СБУ</title>
      <path d="M32 4 L56 14 V34 C56 48 44 58 32 60 C20 58 8 48 8 34 V14 Z" fill="none" stroke="currentColor" stroke-width="3"/>
      <path d="M32 16 V48 M22 22 V32 L32 40 L42 32 V22 M26 22 V30 M38 22 V30" fill="none" stroke="currentColor" stroke-width="2.8" stroke-linecap="round" stroke-linejoin="round"/>
    </symbol>
    <symbol id="i-police" viewBox="0 0 64 64"><title>Національна поліція</title>
      <circle cx="32" cy="32" r="27" fill="none" stroke="currentColor" stroke-width="3"/>
      <path d="M32 12 L37.5 25.5 L52 27 L41 37 L44.5 51 L32 43.5 L19.5 51 L23 37 L12 27 L26.5 25.5 Z" fill="currentColor"/>
    </symbol>
    <symbol id="i-nbu" viewBox="0 0 64 64"><title>Національний банк України</title>
      <circle cx="32" cy="32" r="27" fill="none" stroke="currentColor" stroke-width="3"/>
      <circle cx="32" cy="32" r="20" fill="none" stroke="currentColor" stroke-width="1.2" stroke-dasharray="2 3"/>
      <text x="32" y="44" text-anchor="middle" font-size="32" font-weight="900" fill="currentColor" font-family="Georgia,serif">₴</text>
    </symbol>
    <symbol id="i-zsu" viewBox="0 0 64 64"><title>Генштаб ЗСУ</title>
      <path d="M32 4 L56 14 V34 C56 48 44 58 32 60 C20 58 8 48 8 34 V14 Z" fill="none" stroke="currentColor" stroke-width="3"/>
      <path d="M20 18 L44 46 M44 18 L20 46" stroke="currentColor" stroke-width="3.5" stroke-linecap="round"/>
      <circle cx="32" cy="32" r="4" fill="currentColor"/>
    </symbol>
    <symbol id="i-mod" viewBox="0 0 64 64"><title>Міністерство оборони</title>
      <path d="M32 4 L56 14 V34 C56 48 44 58 32 60 C20 58 8 48 8 34 V14 Z" fill="none" stroke="currentColor" stroke-width="3"/>
      <path d="M18 36 C18 26 24 20 32 20 C40 20 46 26 46 36 L46 40 L18 40 Z" fill="currentColor"/>
      <path d="M32 20 V14 M26 40 L26 46 M38 40 L38 46 M32 40 V48" stroke="currentColor" stroke-width="2.5" stroke-linecap="round"/>
    </symbol>
    <symbol id="i-rnbo" viewBox="0 0 64 64"><title>РНБО України</title>
      <circle cx="32" cy="32" r="27" fill="none" stroke="currentColor" stroke-width="3"/>
      <path d="M32 12 V52 M20 20 V32 C20 40 26 46 32 46 M44 20 V32 C44 40 38 46 32 46 M26 14 V24 M38 14 V24" fill="none" stroke="currentColor" stroke-width="3" stroke-linecap="round" stroke-linejoin="round"/>
    </symbol>
    <symbol id="i-cyber" viewBox="0 0 64 64"><title>Кіберполіція</title>
      <path d="M32 4 L56 14 V34 C56 48 44 58 32 60 C20 58 8 48 8 34 V14 Z" fill="none" stroke="currentColor" stroke-width="3"/>
      <circle cx="32" cy="32" r="5" fill="currentColor"/>
      <path d="M32 18 V26 M32 38 V46 M18 32 H26 M38 32 H46" stroke="currentColor" stroke-width="2.5" stroke-linecap="round"/>
      <circle cx="18" cy="32" r="2" fill="currentColor"/><circle cx="46" cy="32" r="2" fill="currentColor"/>
      <circle cx="32" cy="18" r="2" fill="currentColor"/><circle cx="32" cy="46" r="2" fill="currentColor"/>
    </symbol>
  </defs>
</svg>
